<svg version="1.0" xmlns="http://www.w3.org/2000/svg"
 width="512.000000pt" height="512.000000pt" viewBox="0 0 512.000000 512.000000"
 preserveAspectRatio="xMidYMid meet">

<g transform="translate(0.000000,512.000000) scale(0.100000,-0.100000)"
fill="#fff" stroke="none">
<path d="M4720 5030 l0 -90 -85 0 -85 0 0 -85 0 -85 85 0 85 0 0 -90 0 -90 90
0 90 0 0 90 0 90 90 0 90 0 0 85 0 85 -90 0 -90 0 0 90 0 90 -90 0 -90 0 0
-90z m180 -175 l0 -85 -90 0 -90 0 0 85 0 85 90 0 90 0 0 -85z"/>
<path d="M2610 4649 c-91 -3 -210 -14 -265 -24 -595 -104 -1128 -462 -1442
-968 -69 -112 -152 -284 -189 -392 -15 -44 -32 -86 -38 -94 -6 -8 -12 -26 -12
-40 -1 -14 -13 -78 -27 -141 -39 -177 -50 -301 -44 -509 6 -208 25 -335 81
-521 83 -281 208 -518 392 -746 539 -665 1445 -934 2264 -673 226 72 444 185
633 328 527 397 838 1023 837 1685 -1 465 -167 938 -460 1306 -85 106 -280
297 -382 373 -286 213 -631 354 -983 401 -155 21 -180 22 -365 15z m-111 -246
c-52 -54 -137 -147 -189 -207 -175 -200 -451 -421 -722 -576 -64 -37 -201
-102 -305 -144 -103 -43 -230 -97 -282 -122 -52 -24 -96 -43 -98 -40 -6 6 82
179 137 267 227 366 588 660 985 802 169 61 407 113 529 116 l40 1 -95 -97z
m591 57 c106 -23 311 -86 335 -104 14 -10 0 -24 -92 -96 -148 -116 -251 -208
-433 -385 -260 -252 -418 -381 -705 -572 -298 -199 -467 -290 -833 -450 -233
-101 -326 -147 -492 -242 l-123 -71 6 123 c7 120 24 248 47 338 10 41 18 49
81 88 101 63 242 130 429 206 91 37 221 96 289 131 310 161 627 408 851 664
112 127 271 291 345 352 l59 51 71 -7 c38 -3 113 -15 165 -26z m657 -271 c59
-40 142 -100 185 -135 76 -64 268 -259 268 -273 0 -25 -96 -149 -179 -231
-199 -199 -456 -374 -651 -445 -92 -33 -225 -45 -365 -32 -248 21 -478 -21
-714 -134 -254 -121 -417 -269 -641 -582 -78 -110 -169 -204 -240 -249 -67
-42 -190 -90 -285 -111 -86 -19 -274 -41 -281 -34 -9 9 -53 186 -64 257 -6 36
-13 77 -16 92 -5 24 2 31 88 84 140 86 388 212 621 313 341 149 508 239 787
424 314 208 486 348 770 622 91 88 207 196 258 240 95 82 332 264 344 265 3 0
55 -32 115 -71z m601 -616 c30 -48 132 -247 132 -258 0 -3 -17 -13 -37 -22
-69 -28 -247 -112 -315 -148 l-67 -36 32 -57 c18 -31 37 -66 43 -76 11 -18 17
-16 120 36 108 56 284 132 289 126 9 -9 55 -214 58 -254 l2 -48 -65 -19 c-109
-30 -198 -45 -345 -57 -143 -11 -299 -38 -383 -66 -348 -116 -522 -305 -641
-694 -23 -74 -55 -163 -71 -197 -56 -114 -190 -220 -335 -265 -60 -19 -91 -21
-215 -20 -91 1 -177 -4 -232 -13 -129 -22 -358 -108 -766 -287 l-183 -81 -60
59 c-32 32 -59 62 -59 66 0 4 12 8 26 8 44 0 251 50 343 82 187 65 353 166
431 261 66 81 100 148 151 293 75 215 127 293 222 335 172 77 388 -42 389
-214 1 -62 -18 -102 -66 -145 -56 -49 -123 -51 -178 -4 -46 39 -23 129 30 119
30 -6 162 66 162 88 0 7 -15 26 -34 43 -95 83 -235 62 -315 -49 -94 -129 -36
-311 123 -385 62 -29 159 -32 229 -8 53 18 137 89 172 145 62 97 71 246 21
350 -54 114 -167 209 -290 244 -43 13 -83 16 -150 13 -131 -7 -209 -41 -297
-128 -76 -76 -121 -162 -184 -345 -65 -192 -122 -267 -261 -349 -137 -81 -321
-141 -519 -171 -150 -22 -139 -26 -196 63 -50 78 -153 272 -147 276 1 2 46 8
100 15 192 24 400 93 511 170 82 56 179 162 314 343 195 260 326 374 540 475
203 94 338 118 623 108 282 -9 373 7 565 103 246 122 561 376 706 567 23 30
43 55 44 55 2 0 17 -21 33 -47z m277 -1189 l-6 -61 -92 -57 c-141 -88 -291
-203 -484 -375 -221 -196 -366 -306 -562 -423 -292 -174 -444 -244 -816 -372
-132 -46 -280 -100 -330 -121 -99 -41 -364 -171 -379 -186 -18 -17 -48 -9
-145 41 -106 54 -281 166 -281 179 0 15 549 244 710 296 77 25 105 29 300 36
241 8 280 17 422 90 140 73 277 223 330 361 11 29 31 93 44 141 117 432 349
605 874 651 155 14 249 29 365 59 l50 13 3 -105 c2 -58 0 -134 -3 -167z m-96
-446 c-100 -292 -247 -527 -468 -749 -307 -306 -665 -486 -1096 -550 -235 -34
-527 -19 -749 39 l-69 18 94 43 c158 74 268 117 480 189 351 120 552 211 824
372 239 142 349 224 600 447 231 205 416 346 423 323 2 -5 -15 -65 -39 -132z"/>
<path d="M310 1092 c0 -174 -12 -228 -66 -290 -41 -48 -96 -80 -157 -90 l-42
-8 -3 -86 -3 -86 44 -6 c70 -11 147 -62 183 -123 39 -66 44 -94 44 -265 l0
-138 90 0 90 0 0 163 c0 184 10 220 78 290 35 36 121 77 162 77 18 0 20 7 20
89 l0 88 -49 7 c-54 7 -125 49 -157 93 -47 63 -49 73 -54 253 l-5 175 -87 3
-88 3 0 -149z m131 -433 l41 -41 -42 -43 -42 -43 -42 42 -43 41 41 43 c22 23
41 42 43 42 2 0 21 -18 44 -41z"/>
<path d="M4769 515 c-61 -33 -54 -131 10 -153 65 -23 130 33 116 98 -12 55
-76 83 -126 55z"/>
</g>
</svg>