<svg xmlns="http://www.w3.org/2000/svg" xmlns:xlink="http://www.w3.org/1999/xlink" viewBox="0 0 551.97364 561.93603"><defs><style>.cls-1,.cls-2,.cls-4,.cls-7{fill-rule:evenodd;}.cls-1{fill:url(#未命名漸層_61);}.cls-2{fill:url(#未命名漸層_2);}.cls-3{opacity:0.5;}.cls-4{fill:#c4b0b8;}.cls-5{opacity:0.63;}.cls-6{opacity:0.47;}.cls-7{fill:#c4b0ff;}.cls-8{fill:url(#未命名漸層_3);}</style><radialGradient id="未命名漸層_61" cx="701.8555" cy="718.23794" r="0.99992" gradientTransform="matrix(276.00699, 0, 0, -275.97198, -193441.03494, 198489.49699)" gradientUnits="userSpaceOnUse"><stop offset="0.81" stop-color="#008bc4"/><stop offset="0.97917" stop-opacity="0"/></radialGradient><radialGradient id="未命名漸層_2" cx="702.4067" cy="718.33439" r="1" gradientTransform="matrix(352.047, 0, 0, -352.00299, -247058.83791, 253048.0326)" gradientUnits="userSpaceOnUse"><stop offset="0" stop-color="#7c83ff"/><stop offset="0.84" stop-color="#482088"/><stop offset="0.95" stop-color="#403b77"/><stop offset="1" stop-color="#4d79d1"/></radialGradient><radialGradient id="未命名漸層_3" cx="699.19074" cy="723.23353" r="0.99977" gradientTransform="matrix(106.48696, -68.17146, -32.72062, -51.11111, -50364.81617, 85111.80016)" gradientUnits="userSpaceOnUse"><stop offset="0" stop-color="#2c6aff"/><stop offset="1" stop-opacity="0"/></radialGradient></defs><title>星球</title><g id="圖層_2" data-name="圖層 2"><g id="圖層_1-2" data-name="圖層 1"><path class="cls-1" d="M551.97345,275.9458c0,152.404-123.596,275.946-276.019,275.946a274.69511,274.69511,0,0,1-117.31-26.134c-7.025-3.295-13.892-6.906-20.588-10.768a275.88971,275.88971,0,0,1-70.84709-58.621,276.0854,276.0854,0,0,1-42.6796-294.304,267.63157,267.63157,0,0,1,17.2538-32.144,275.88722,275.88722,0,0,1,380.9919-87.65491c4.824,3.0444,9.543,6.20741,14.13,9.54181,3.849,2.75439,7.632,5.64069,11.322,8.606a275.01738,275.01738,0,0,1,102.033,184.94309A268.36922,268.36922,0,0,1,551.97345,275.9458Z"/><path class="cls-2" d="M532.00446,275.9458c0,141.387-114.673,255.993-256.051,255.993a254.64644,254.64644,0,0,1-108.86-24.263c-6.511-3.044-12.878-6.392-19.099-9.977a256.52043,256.52043,0,0,1-65.7328-54.377,251.76381,251.76381,0,0,1-18.9409-24.751,256.20484,256.20484,0,0,1-20.6675-248.243,247.24874,247.24874,0,0,1,16.0147-29.824,255.98068,255.98068,0,0,1,353.4435-81.3157c4.482,2.8335,8.845,5.77241,13.102,8.85641,3.585,2.5567,7.091,5.2716,10.545,7.98659a255.90816,255.90816,0,0,1,94.612,171.61971A251.65031,251.65031,0,0,1,532.00446,275.9458Z"/><g class="cls-3"><g class="cls-3"><path class="cls-4" d="M530.42346,247.58481a36.523,36.523,0,0,0-2.294,5.126,42.19993,42.19993,0,0,1-3.611,7.341,91.23306,91.23306,0,0,0-3.95495,9.344c-2.979,6.893-5.16706,14.379-7.645,21.469-2.754,7.908-5.351,15.815-8.738,23.459-1.516,3.466-3.731,6.59-5.273,9.977s-3.058,6.708-4.943,9.989c-4.666,8.013-8.884,16.185-13.826,24.066-8.884,14.194-19.574,26.806-29.934,39.919-5.272,6.59-11.415,12.349-17.412,18.306-6.775,6.695-12.733,14.194-19.771,20.744a134.94887,134.94887,0,0,1-17.293,14.497c-3.533,2.333-6.933,4.929-10.466,7.223-4.521,2.939-9.833,4.599-14.657,6.971-16.041,7.723-33.216,12.547-50.087,17.964-16.529,5.271-32.465,12.507-49.336,16.724-3.467.87-6.973,1.213-10.479,1.924-3.796.751-7.447,1.845-11.335,2.254-7.751.87-15.25,3.466-23.08,3.954-5.47.263-10.545-.791-15.896-1.055a169.89111,169.89111,0,0,0-20.536.896,111.06855,111.06855,0,0,1-22.71-.869c-6.512-3.045-12.878-6.392-19.099-9.977l.711.224c4.456,1.437,8.594,3.954,13.076,5.048,4.784,1.094,9.754,1.884,14.696,2.715a58.78183,58.78183,0,0,0,19.574.118c3.467-.566,6.973-.988,10.439-1.7,3.77-.791,7.566.185,11.336-.672,5.272-1.318,11.045-.264,16.383-.461,9.227-.303,18.23-3.69,27.127-5.496,9.872-1.99,19.244-5.575,29.301-6.774,5.733-.685,10.241-2.636,15.672-4.336,4.666-1.437,7.645-4.033,11.52-6.972,7.46-5.575,14.999-11.294,23.725-14.906a139.85741,139.85741,0,0,1,27.008-7.907,47.97218,47.97218,0,0,0,21.616-10.28c2.571-2.306,5.009-4.718,7.54-7.051a111.36013,111.36013,0,0,0,9.226-8.579c3.164-3.625,6.775-6.933,9.899-10.544,3.467-4.019,6.301-8.54,9.728-12.573,5.456-6.444,13.787-9.792,19.164-16.342,1.134-1.318,1.885-3.018,3.058-4.336s2.518-2.069,3.269-3.835c.91-2.148,3.137-7.117,1.925-9.528-2.412-4.864-15.185,7.643-17.215,9.594-3.163,2.978-5.76,6.036-9.569,8.211a55.595,55.595,0,0,1-6.999,3.729c-4.073,1.661-8.778,1.845-13.075,2.755-11.942,2.557-24.108,3.954-36.155,5.838-16.318,2.517-32.807,5.944-48.862,9.858-15.026,3.664-29.907,7.908-44.933,11.453-7.988,1.924-15.975,3.954-23.989,5.693-9.793,2.188-19.402,5.193-29.235,7.078-16.199,2.938-32.491,6.523-49.007,6.971-12.956.343-25.794,1.015-38.764,1.015-17.465,0-36.195,1.766-53.33-2.333a4.53054,4.53054,0,0,1-.6458-.184,251.76381,251.76381,0,0,1-18.9409-24.751,87.78237,87.78237,0,0,0,19.5867,6.142c4.9033.87,10.0966,1.99,14.1563,4.929a29.47572,29.47572,0,0,0,8.4757,4.784c11.151,3.585,21.089,3.361,32.253.079q6.261-1.85852,12.43-3.875c3.044-1.028,5.839-2.833,8.883-3.663,8.634-2.254,17.557-3.875,26.257-5.865,4.138-.949,8.475-1.74,12.548-2.979,4.587-1.436,8.884-3.769,13.286-5.574,8.436-3.467,16.278-7.038,25.32-8.593,5.681-.936,12.272-1.648,17.478-4.284,1.687-.83,4.218-2.003,3.954-4.256-.303-2.794-3.954-2.043-5.957-1.701-5.839,1.015-11.784,1.542-17.584,3.084a156.1547,156.1547,0,0,1-31.304,4.824c-15.896,1.054-32.095,2.003-48.031,1.173-12.654-.646-25.386-1.779-38.04-1.661-12.245.119-24.147-.935-35.7857-4.784-13.1413-4.322-26.5199-8.276-38.6726-14.945a256.58145,256.58145,0,0,1,.0791-211.078c-1.7004,4.679-3.1239,9.463-5.0878,13.97a69.62045,69.62045,0,0,0-6.2082,27.676,79.59423,79.59423,0,0,1-.0791,11.216c-.6459,4.744-1.0149,7.802.3427,12.586,1.0149,3.506,1.3181,6.893,2.8602,10.28a9.40141,9.40141,0,0,0,2.0299,2.82,25.16024,25.16024,0,0,1,2.0035,3.361c2.0694,3.387,5.0483,7.907,8.6203,9.858a40.77185,40.77185,0,0,0,7.4603,2.833c3.0052.857,4.1784,1.2,7.1968.106a30.19333,30.19333,0,0,1,7.6052-1.951,19.97072,19.97072,0,0,1,4.2179.936c1.8058.303,3.5852.145,5.4305.527,7.5263,1.582,14.868,3.427,22.592,3.348,6.063-.066,12.021.949,18.163.949,7.381,0,14.684.224,21.986-.712,4.943-.646,10.254-1.885,15.184-2.188s10.215.145,15.25.079c17.518-.276,35.589-4.494,50.812-13.337a110.08772,110.08772,0,0,1,25.888-11.071c11.678-3.36,23.606-6.668,35.588-8.935a140.40555,140.40555,0,0,0,32.227-10.398,87.38519,87.38519,0,0,0,12.996-7.578c3.77-2.557,7.909-4.508,11.52-7.183,10.545-7.802,19.771-16.949,28.998-26.253,5.272-5.272,10.624-10.543,16.133-15.591,4.548-4.151,9.372-5.997,15.211-7.42,9.306-2.227,14.499-12.691,19.508-20.19,6.327-9.45,11.573-20.296,11.863-31.934a66.61639,66.61639,0,0,0-1.095-14.31219,23.98016,23.98016,0,0,0-1.766-6.1415,21.72937,21.72937,0,0,1-1.845-3.76921c-.264-1.12019-.303-2.29319-.527-3.308s-.752-2.0427-.976-2.8598c-.527-2.1878-1.621-5.20579-1.476-7.6176v-.145c3.585,2.5568,7.091,5.27169,10.545,7.9866a16.48777,16.48777,0,0,1-.079,3.0048c-.224,1.2125-.646,2.22729-.87,3.42659-.303,1.7792-.976,2.794-.936,4.7445a24.74463,24.74463,0,0,0,.448,5.81211c1.239,4.7445,4.337,9.1467,4.297,14.1547a39.316,39.316,0,0,1-3.322,14.747c-1.805,4.521-3.756,8.698-5.944,13.034a50.098,50.098,0,0,1-5.009,8.132,58.8351,58.8351,0,0,0-5.272,7.38,67.92207,67.92207,0,0,0-3.058,6.405c-1.661,3.954-4.337,6.023-7.342,8.962-6.182,5.957-13.906,10.781-20.536,16.501a97.43047,97.43047,0,0,0-14.723,15.208c-1.884,2.636-11.52,10.135-8.923,14.089,1.16,1.74,4.824,1.173,6.472,1.173a26.94782,26.94782,0,0,0,10.966-2.451c9.372-4.257,18.717-9.305,28.589-12.244,4.442-1.318,9.227-2.03,13.405-3.954a127.9952,127.9952,0,0,0,14.697-8.052c3.73-2.307,5.945-5.272,8.739-8.593,1.582-1.885,3.796-2.939,5.536-4.665,2.03-2.043,3.308-4.415,5.575-6.181a70.58508,70.58508,0,0,0,14.381-15.512c3.664-5.272,5.008-11.862,6.59-17.858a23.29847,23.29847,0,0,0,1.054-4.745c.066-2.029,0-4.138,0-6.181v-.329A253.90738,253.90738,0,0,1,530.42346,247.58481Z"/></g><g class="cls-3"><path class="cls-4" d="M413.73346,80.74921c-.976,5.7988-1.503,11.5186-2.636,17.3174-1.134,5.7992-1.424,12.2432-3.77,17.5942-3.954,9.225-5.193,19.466-11.441,27.597-2.636,3.466-4.719,7.196-8.106,10.095a28.98866,28.98866,0,0,1-4.06,2.228c-1.318.87-2.715,2.188-3.954,3.123-6.709,4.903-13.827,9.951-19.771,15.815-6.367,6.26-12.43,12.402-19.956,17.331-2.267,1.463-4.64,2.517-6.973,3.809a49.1946,49.1946,0,0,1-5.655,3.229,26.20309,26.20309,0,0,0-6.695,3.163,28.36439,28.36439,0,0,1-5.919,3.36c-3.611,1.424-7.117,3.124-10.729,4.521-1.661.672-3.4,1.054-5.088,1.647-4.784,1.819-8.29,1.661-14.498,2.148-1.951-.856-.29-.935,1.318-1.647a7.1436,7.1436,0,0,0,2.557-1.964,33.71572,33.71572,0,0,1,4.363-3.953c2.715-1.964,6.3-2.939,9.226-4.705,3.73-2.333,7.421-5.167,11.033-7.684,3.057-2.109,5.351-5.43,7.908-8.066,2.715-2.859,5.997-5.416,8.963-8.092,3.467-3.084,6.445-6.589,9.951-9.647a36.8057,36.8057,0,0,0,8.818-11.07c.976-1.806,2.558-3.124,3.573-4.969a46.44115,46.44115,0,0,0,2.86-5.192c.87-2.149,2.003-4.152,2.939-6.221,1.054-2.412,1.015-5.272,1.542-7.789,1.582-7.538,3.098-15.143,4.482-22.721a127.84807,127.84807,0,0,0,1.436-19.4655c.224-6.181,1.964-12.20389,1.991-18.45089a15.10211,15.10211,0,0,0-.897-6.74771c-1.318-2.939-2.794-5.49569-3.848-8.55329a49.60308,49.60308,0,0,0-17.135-23.6039c-1.2-.8698-5.009-3.163-8.779-5.9174a254.04682,254.04682,0,0,1,75.447,31.93309A50.29778,50.29778,0,0,1,413.73346,80.74921Z"/></g><g class="cls-3"><path class="cls-4" d="M339.52545,81.15771c-.554,3.24211-2.518,5.6934-3.427,8.7774a73.95706,73.95706,0,0,0-2.333,10.70171c-.752,5.495-.264,10.952-.897,16.487a94.8699,94.8699,0,0,1-9.226,29.983c-4.6,9.37-12.469,17.053-21.09,22.865-8.883,6.063-18.756,10.689-28.47,15.17-5.536,2.53-11.375,3.584-17.03,5.733-4.745,1.766-9.411,3.795-14.13,5.64-4.718,1.845-8.963,5.008-13.629,6.524-2.899.936-5.76,1.911-8.659,2.965-4.983,1.78-9.504,4.415-14.354,6.485a123.32535,123.32535,0,0,1-21.248,6.971c-7.197,1.687-14.156.593-21.392-.303a174.33931,174.33931,0,0,1-18.124-2.636c-10.953-2.635-22.75-1.884-33.927-1.884-8.476,0-18.269.83-25.7689-3.77-2.1485-1.317-4.5211-2.714-5.7205-4.968-1.4763-2.794-1.6608-6.326-2.3067-9.344-1.3181-6.208-7.223-10.438-11.2564-14.985-5.2723-5.957-7.2758-13.482-8.3303-21.166a57.299,57.299,0,0,1,.4614-19.927,254.93306,254.93306,0,0,1,46.8714-55.5235c-4.284,8.1316-7.5266,16.76349-11.2964,25.1595-5.6809,12.573-10.6896,26.279-10.2019,40.328.1845,5.509.6326,11.677,3.572,16.461,2.2671,3.69,5.9973,6.365,9.6088,8.553,5.9185,3.545,11.8625,7.459,18.2295,9.898,7.196,2.754,14.393,5.39,21.55,8.144,4.179,1.582,8.212,3.387,12.733,3.954a117.496,117.496,0,0,0,16.687.145c19.692-.527,37.882-9.753,56.414-15.327,5.958-1.806,12.139-2.636,18.005-4.587a76.91274,76.91274,0,0,0,10.255-4.678c8.238-4.257,17.24-7.46,24.964-12.771a106.37567,106.37567,0,0,0,20.72-18.859c4.6-5.509,6.67-11.005,8.924-17.779,4.442-13.337,6.142-26.174,7.341-40.078.528-5.9043,2.571-11.176,3.955-16.9089.896-3.7956.369-8.1711-2.637-10.9255-6.102-5.3771-15.105-8.73781-22.908-10.5434-4.745-1.1334-9.226-2.6358-14.156-2.6358h-14.433c-4.824,0-9.148-1.01481-13.787-1.01481-5.457,0-10.545,1.54191-15.936,1.9637a157.43572,157.43572,0,0,0-16.832,2.1086c-6.59,1.15981-12.956,3.7957-19.362,5.7198a110.601,110.601,0,0,0-35.391,17.8578c-2.636,2.02961-5.496,3.65071-8.251,5.4562-2.412,1.621-3.282,3.46611-4.824,5.8779a49.54791,49.54791,0,0,0-6.775,15.6305,45.87354,45.87354,0,0,0-.87,12.24391,96.87088,96.87088,0,0,1-1.621,16.526c-1.318,7.684-8.7,19.097-.567,25.238a10.5352,10.5352,0,0,0,7.908,1.845,90.04865,90.04865,0,0,0,12.272-2.859c11.269-3.163,23.053-6.933,34.731-8.409,3.546-.448,6.894-.184,10.4-1.08,2.188-.607,4.257-1.318,6.472-1.74,5.127-.936,10.254-4.257,14.274-7.604,1.846-1.542,3.362-3.427,5.273-4.969,2.557-2.109,5.641-3.506,8.093-5.772,3.506-3.229,6.854-6.735,10.136-10.201,6.735-7.077,11.599-15.9338,17.32-23.72271,3.624-4.9422,7.644-10.31929,8.633-16.4608.751-4.7445-5.048-7.2749-8.594-8.77729a23.72654,23.72654,0,0,0-12.205-1.7002c-5.76,1.028-11.033,4.45459-16.384,6.7478-11.784,5.16619-24.938,6.4446-35.18,14.72109-3.73,2.97851-3.545,5.83841-4.705,9.9899a37.58769,37.58769,0,0,1-2.9,5.71971c-1.542,2.8599-1.74,3.5716-.949,6.5895s1.516,7.038,4.943,8.356c2.965,1.173,7.75.158,10.32-1.463a22.52185,22.52185,0,0,1,4.706-2.86c1.094-.422,3.77-1.661,4.824-1.318,1.885.712.488,1.871-.303,2.899a14.17643,14.17643,0,0,0-1.701,2.9,9.02229,9.02229,0,0,1-1.133,2.939c-3.005,3.426-8.989,5.153-13.181,6.589-3.651,1.318-6.393,2.781-10.386,2.821-5.391,0-3.203-3.954-3.955-7.908-1.054-5.008-6.827-6.879-7.46-12.085-.633-5.20579.975-10.952,3.084-15.512a38.90506,38.90506,0,0,1,3.361-5.4693c1.991-3.04439,4.93-4.85,7.975-6.8927,8.963-5.90429,20.153-8.7378,30.316-12.1644,10.162-3.42659,21.247-4.01969,31.304-7.60439,6.854-2.4514,14.051-3.24211,21.09-4.5205,6.511-1.15971,12.245,1.397,14.947,7.34079,2.873,6.29971,6.261,13.1133,4.257,20.08511-2.715,9.59449-5.905,19.123-10.953,27.7954-6.222,10.688-13.787,20.783-25.044,26.701-7.908,4.177-16.502,6.51-24.859,9.634a97.29219,97.29219,0,0,1-19.6,5.522c-10.439,1.581-20.008,7.749-30.21,10.319a411.94533,411.94533,0,0,1-42.601,8.276,50.48655,50.48655,0,0,1-15.289.462c-2.412-.343-4.64-.119-6.934-1.134-1.621-.711-3.282-1.476-4.89-2.148-5.575-2.412-10.966-6.405-10.333-13.179.606-6.366,2.913-12.771,4.112-19.018.83-4.151.909-8.25,1.924-12.401.752-3.163,1.463-6.392,2.333-9.529a26.86665,26.86665,0,0,1,3.282-7.749c2.966-4.15161,5.273-9.00161,8.397-12.9553a33.09384,33.09384,0,0,0,3.611-4.67861,18.25112,18.25112,0,0,1,2.755-4.2174c1.199-1.31789,2.03-3.04429,3.308-4.36229a59.20442,59.20442,0,0,1,8.067-6.14151,111.20837,111.20837,0,0,1,19.653-11.55809c6.748-2.939,13.787-4.9027,20.72-7.23541,6.221-2.14819,11.981-5.53529,18.163-7.90749a94.60263,94.60263,0,0,1,21.696-5.2717,352.07014,352.07014,0,0,1,44.551-3.0971c18.69.07909,39.397-6.9981,57.139,1.92419a19.55567,19.55567,0,0,1,9.951,10.4379,58.63764,58.63764,0,0,1,4.521,23.7225C339.68344,74.22552,340.09146,77.81022,339.52545,81.15771Z"/></g></g><g class="cls-5"><g class="cls-5"><path class="cls-4" d="M50.19305,161.58981c1.3181,3.453,3.0051,6.471,4.1255,9.977a30.00327,30.00327,0,0,0,3.0053,7.143c1.3971,2.267,2.2407,4.85,3.572,7.183a35.94352,35.94352,0,0,1,3.4929,8.184c.5404,2.109.6326,4.336,1.2126,6.471.7381,2.728,1.4763,5.469,2.2408,8.198a18.3118,18.3118,0,0,0,2.333,4.784c1.0017,1.607,2.1617,4.125,3.7302,5.271,5.0482,3.572,12.2845,2.056,18.1104,1.424,5.2724-.567,10.6767-.607,15.9887-1.318a47.05981,47.05981,0,0,1,8.409-.198,63.04009,63.04009,0,0,1,8.001.909c2.293.448,4.521.514,6.827.883,3.309.528,6.591,1.318,9.912,1.661,3.704.29,7.514.83,11.217.909,5.273.093,10.716-.448,16.015.119a134.60637,134.60637,0,0,0,13.945,1.318c6.077,0,12.14-1.806,17.781-3.862,9.398-3.426,19.086-6.22,28.524-9.673a64.20661,64.20661,0,0,0,9.806-5.272c2.887-1.687,5.984-2.794,8.765-4.652a51.64023,51.64023,0,0,1,17.135-6.748c5.932-1.318,11.666-3.466,17.544-4.85,3.954-.922,7.724-2.926,11.652-3.44-.738,3.084-7.473,4.205-9.886,5.074-5.575,1.99-11.625,3.084-17.016,5.509-3.519,1.595-6.024,4.639-8.792,7.223-2.636,2.372-4.468,4.836-7.407,6.8a25.23663,25.23663,0,0,1-9.583,3.954c-7.579,1.515-14.973,4.23-22.526,5.904-7.552,1.674-14.934,3.4-21.88,6.59-1.924.896-7.579,3.123-7.816,5.904-.185,2.227,2.517,1.41,4.086,1.41,3.374,0,7.829-.804,11.006.527a39.61915,39.61915,0,0,0,7.091,2.715,31.96975,31.96975,0,0,0,17.135-1.792c7.25-2.821,15.171-4.257,22.79-5.707,5.272-1.015,10.4-2.53,15.659-3.637a106.93924,106.93924,0,0,1,12.232-1.45c5.957-.567,11.928-1.252,17.846-2.24,4.732-.804,9.912-1.318,14.249-3.387,3.598-1.767,7.816-2.874,10.993-5.351.843-.659,5.641-4.797,6.761-3.849,2.333,2.004-10.94,9.555-11.862,10.175a71.89887,71.89887,0,0,1-13.577,6.708c-6.036,2.464-12.231,3.545-18.453,5.113-7.17,1.78-14.314,3.256-21.445,5.074-7.131,1.819-14.499,2.729-21.63,5.114a75.18445,75.18445,0,0,0-10.465,4.099c-3.085,1.581-6.367,2.636-9.411,4.283-6.591,3.519-12.746,8.461-19.877,10.754a84.48368,84.48368,0,0,1-19.152,4.218c-8.554.685-17.135-.514-25.597-1.397a218.03448,218.03448,0,0,0-26.124-1.477c-8.067.132-16.121,1.819-24.174,2.201-5.549.264-10.0043-1.713-15.1053-3.611a90.40943,90.40943,0,0,1-15.896-8.052,26.83691,26.83691,0,0,0-15.013-4.086,19.53773,19.53773,0,0,0-3.3348.765,5.56733,5.56733,0,0,1-3.6116-.989c-4.7451-2.227-9.5033-5.891-11.8627-10.794a57.80206,57.80206,0,0,1-4.4419-16.592,77.0512,77.0512,0,0,1-.1186-9.871c0-4.363-.7909-8.659-.7513-13.048,0-6.932-.7909-14.286,1.3971-20.994,2.0431-6.313,6.2477-12.204,10.0833-17.529,2.188-3.018,3.9543-6.26,6.2346-9.225.804,1.582-1.1072,4.613-1.5026,6.247C52.302,159.62682,51.41885,163.93582,50.19305,161.58981Z"/></g><g class="cls-5"><path class="cls-4" d="M375.62744,199.41481c-2.043,2.636-5.72,6.023-6.287,9.489s3.216,2.873,5.668,2.504c5.272-.83,10.808-1.318,15.817-3.4,2.965-1.226,5.733-2.926,8.699-4.165,2.452-1.041,5.075-1.41,7.526-2.438,5.839-2.465,12.127-3.769,17.913-6.432a51.399,51.399,0,0,0,13.642-9.989c2.847-2.729,5.589-4.85,7.553-8.369,1.436-2.636,3.15-5.14,4.336-7.908a44.46958,44.46958,0,0,0,2.834-11.532,26.1565,26.1565,0,0,0,.079-6.339c-.659-4.823-5.509-5.271-9.609-4.705-5.048.699-9.108,3.638-12.851,6.853-3.743,3.216-6.59,6.801-10.676,9.226-4.495,2.741-8.871,5.509-13.181,8.474a39.59312,39.59312,0,0,0-6.472,5.1c-1.634,1.674-3.216,3.467-4.996,4.995a45.75337,45.75337,0,0,1-5.839,4.073c-1.647,1.028-3.163,2.477-4.85,3.36a23.95148,23.95148,0,0,0-6.011,4.284,16.44969,16.44969,0,0,0-3.255,3.835C374.28345,198.93982,374.55945,202.15582,375.62744,199.41481Z"/></g><g class="cls-5"><path class="cls-4" d="M434.15045,129.48581c.87-2.715,1.45-3.73,3.954-5.035,1.556-.817,2.636-1.028,3.757.699,2.03,3.334.566,7.393-.752,10.609-.949,2.346-4.732,4.705-6.458,1.753-1.16-2.003-1.121-7.907,1.647-8.738Z"/></g><g class="cls-5"><path class="cls-4" d="M220.05444,228.67282c1.318-2.439,1.621-2.702,3.954-3.585a14.65128,14.65128,0,0,1,4.706-1.424c2.016-.197,4.218-1.317,6.261-.553,3.137,1.12,2.544,3.875.421,5.825a6.47348,6.47348,0,0,1-3.137,1.872,21.95527,21.95527,0,0,1-5.021.711c-2.874,0-5.273.119-7.777-1.568a1.13277,1.13277,0,0,1,.659-1.318Z"/></g><g class="cls-5"><path class="cls-4" d="M100.14845,409.1618a78.414,78.414,0,0,0,25.465,4.362,263.22717,263.22717,0,0,0,30.751-.923c6.801-.645,13.55-.474,20.325-1.436,3.282-.475,6.406-.33,9.688-.488,1.885-.079,3.862-1.199,5.707-.619,7.131,2.174-5.536,6.273-6.973,6.985-5.153,2.556-10.913,3.439-16.383,5.034-2.109.606-4.258,1.213-6.327,1.924a48.82114,48.82114,0,0,1-5.852,2.175c-8.397,1.832-16.793,2.636-25.163,4.441a24.64454,24.64454,0,0,1-9.661.567c-3.348-.619-6.472-2.636-9.451-4.125a72.52327,72.52327,0,0,1-10.703-5.852,35.39637,35.39637,0,0,1-4.8898-3.953,7.42022,7.42022,0,0,1-1.3181-2.9c-.8436-2.161-.804-3.031,1.0545-4.613a5.27181,5.27181,0,0,1,5.0614-1.133C101.49245,408.81882,101.53245,409.01682,100.14845,409.1618Z"/></g><g class="cls-5"><path class="cls-4" d="M317.34244,493.4158a42.41,42.41,0,0,0-11.995,5.483c-1.608,1.133-3.585,3.07-1.212,4.52,3.203,1.951,8.409.909,11.862.606,5.958-.54,11.863-1.634,17.768-2.412,4.033-.54,7.988-.962,11.968-1.766a127.98382,127.98382,0,0,0,15.277-4.401,46.63528,46.63528,0,0,0,10.545-4.903,89.528,89.528,0,0,0,10.109-6.59c4.099-3.439,9.504-6.128,11.085-11.624,1.318-4.573-8.567-2.925-10.544-2.635a108.54547,108.54547,0,0,0-21.525,5.363c-3.018,1.068-6.247,1.885-9.226,3.177-3.954,1.752-7.737,3.835-11.771,5.39-1.911.751-3.585,1.95-5.523,2.636-1.7.632-3.413,1.199-5.101,1.884-1.687.686-3.769,1.621-5.694,2.241C319.01645,491.87381,314.64044,493.07281,317.34244,493.4158Z"/></g><g class="cls-5"><path class="cls-4" d="M396.33545,460.11182c.751-2.464,2.332-3.598,4.165-5.377,1.423-1.384,2.781-2.873,4.85-3.163,1.529-.224,3.954,1.542,3.282,3.295a12.87072,12.87072,0,0,1-2.069,2.636,7.83891,7.83891,0,0,1-2.715,2.636,9.854,9.854,0,0,1-7.039.448Z"/></g><g class="cls-5"><path class="cls-4" d="M422.02444,400.17282a33.563,33.563,0,0,1-5.444,2.636,40.04315,40.04315,0,0,1-4.349.751c-4.363.686-8.871.989-13.274,1.424-5.628.553-11.216,1.318-16.845,1.779-9.938.751-20.39,1.608-29.894,4.665a134.31424,134.31424,0,0,0-23.119,9.845,121.7284,121.7284,0,0,0-18.598,11.861,58.56,58.56,0,0,0-5.365,5.167,14.86456,14.86456,0,0,0-3.018,3.953c-1.041,2.346-.092,3.954,1.964,5.272,3.203,2.043,7.091,2.227,10.755,2.728,5.444.751,10.861,1.437,16.279,2.28a158.05179,158.05179,0,0,0,16.924,1.845c5.813.264,11.863.145,17.399-1.963a78.8767,78.8767,0,0,0,11.388-5.127c3.559-2.043,7.104-4.059,10.479-6.392a53.32753,53.32753,0,0,0,7.117-5.021c.936-.883,1.885-1.648,2.86-2.465,1.516-1.318,2.637-2.912,4.152-4.191a59.0097,59.0097,0,0,0,9.227-9.7c2.083-2.741,4.613-5.074,6.67-7.815,1.212-1.634,2.478-2.491,3.202-4.494A30.35461,30.35461,0,0,0,422.02444,400.17282Z"/></g><g class="cls-5"><path class="cls-4" d="M433.91345,392.02881a14.50607,14.50607,0,0,1,3.664-4.376c1.2-1.133,2.782-3.123,4.442-3.651a2.43978,2.43978,0,0,1,2.491.383,3.20181,3.20181,0,0,1,.739,2.517c-.343,2.003-2.294,3.558-3.955,4.428-2.069,1.068-3.282.527-5.457.224Z"/></g><g class="cls-5"><path class="cls-4" d="M509.57144,321.20383a17.92,17.92,0,0,0-2.953,2.873,61.02919,61.02919,0,0,1-3.954,5.706,43.18368,43.18368,0,0,0-4.099,6.208c-1.556,2.715-3.388,5.271-4.838,7.999-3.137,5.957-5.628,12.231-8.435,18.346-1.411,3.057-2.637,6.194-3.955,9.225a40.74808,40.74808,0,0,0-3.361,10.24c-.408,2.557-1.067,6.946,2.373,7.407,4.27.58,8.567-3.097,11.678-5.548a93.10029,93.10029,0,0,0,20.641-23.262c5.536-8.751,10.901-19.268,9.517-29.929a57.485,57.485,0,0,1,.316-14.498c.659-5.1,2.228-10.2,2.32-15.366,0-3.664.672-7.249-.132-10.86a4.65317,4.65317,0,0,0-1.555-3.058c-.949-.553-1.608,0-2.465.646a19.22869,19.22869,0,0,0-6.011,7.183c-1.687,3.505-1.779,7.288-3.202,10.886a38.89647,38.89647,0,0,1-1.384,3.769c-.528.988-1.174,1.937-1.714,2.939a24.95545,24.95545,0,0,0-1.766,5.654c-.317,1.199-.501,2.319-.831,3.519-.263.935-.672,1.937-.856,2.886C504.72046,325.11783,505.05045,325.88181,509.57144,321.20383Z"/></g><g class="cls-5"><path class="cls-4" d="M470.08145,384.47681c-.856.843-6.037,5.851-4.033,7.13.554.356,2.083,0,2.636-.251a10.6494,10.6494,0,0,0,2.834-1.963,3.5041,3.5041,0,0,0,1.41-3.44c0-2.254-1.423-2.188-3.321-1.424Z"/></g><g class="cls-5"><path class="cls-4" d="M482.44543,396.36383c1.107-1.476,1.423-2.108,2.979-2.714a18.85913,18.85913,0,0,1,3.585-1.621c1.647-.264,2.412.355,2.544,2.016.237,2.833-3.256,6.497-4.825,8.514a39.54472,39.54472,0,0,1-6.59,7.064c-3.572,2.794-6.169-1.714-4.837-5.061.804-2.03,1.133-4.428,2.399-6.234,1.977-2.833,4.929-2.82,8.093-3.4Z"/></g><g class="cls-5"><path class="cls-4" d="M206.49146,88.09a12.15046,12.15046,0,0,0-6.037,7.90749c-.501,1.621-1.134,5.07431.224,6.47131,2.32,2.398,8.541-.224,10.795-1.094,4.389-1.68721,8.858-4.1912,13.431-5.27191,8.634-1.99009,18.111-2.794,25.532-8.10519a45.65617,45.65617,0,0,0,10.689-11.36041c1.872-2.72809,4.337-4.9423,4.587-8.46109.488-7.11681-9.451-7.59121-14.13-6.4973a140.23279,140.23279,0,0,0-28.998,9.81849c-5.456,2.63581-12.231,5.9833-16.08,10.886a18.2666,18.2666,0,0,0-2.32,4.44139C203.70944,87.945,202.65546,91.17391,206.49146,88.09Z"/></g><g class="cls-5"><path class="cls-4" d="M225.04945,108.06982c-1.173-2.636-1.753-2.86.198-4.455a31.66922,31.66922,0,0,1,5.272-3.281,15.36672,15.36672,0,0,1,7.144-1.6082c4.983.593,2.716,6.2072,1.174,8.9092-.963,1.7-1.674,3.268-3.283,4.178-1.898,1.08-3.176,1.634-5.272.935a11.6967,11.6967,0,0,1-3.954-2.517c-.844-.751-2.808-2.122-2.636-3.466l.619-.119Z"/></g><g class="cls-5"><path class="cls-4" d="M190.06845,169.44481c.118-2.359-.079-2.886,1.397-4.375,2.188-2.241,5.404-3.954,7.988-5.615a80.65511,80.65511,0,0,1,18.901-8.803,112.60663,112.60663,0,0,1,18.123-4.204c4.587-.712,8.924-2.228,13.537-2.873,7.105-.976,15.817-4.415,21.498,2.319,4.561,5.456-3.875,12.678-7.908,15.644a30.04993,30.04993,0,0,1-11.455,5.047c-4.916,1.239-9.767,2.715-14.683,3.954-9.134,2.267-17.623,6.59-26.362,10.03-6.023,2.345-10.32,2.121-15.738-1.463C192.42744,177.08882,187.43245,171.93582,190.06845,169.44481Z"/></g><g class="cls-5"><path class="cls-4" d="M272.85645,128.77382c-1.186,2.188-4.138,6.194-.329,7.565,2.162.778,3.717-.962,5.272-2.201,1.556-1.239,3.862-2.636,5.048-4.652a3.33436,3.33436,0,0,0-1.634-5.272c-4.468-1.99-6.59,2.293-9.134,5.272Z"/></g><g class="cls-5"><path class="cls-4" d="M342.80743,85.24332c-3.954,4.1119-6.34,8.89589-5.694,14.73449.646,5.838,4.455,6.932,9.226,4.547a27.19656,27.19656,0,0,0,4.139-2.122c1.318-1.028,2.135-2.9524,3.137-4.2966a15.56285,15.56285,0,0,0,3.414-10.0162c0-3.598.422-7.44631-.54-10.92561-.528-1.92419-1.318-4.5073-3.006-5.69339-2.003-1.31791-3.532.43489-4.995,1.621a12.18738,12.18738,0,0,0-3.585,3.4266,40.88313,40.88313,0,0,0-3.599,9.4363Z"/></g><g class="cls-5"><path class="cls-4" d="M262.15445,207.98082c.171-2.715.092-2.899,2.056-4.402a45.77107,45.77107,0,0,1,4.521-3.321,25.99955,25.99955,0,0,1,9.78-3.018,13.94606,13.94606,0,0,1,7.908,1.318c1.543.87,1.832,2.636,1.45,4.468-.54,2.57-3.097,4.204-5.008,5.72-1.912,1.515-4.548,3.545-6.96,4.125a17.95673,17.95673,0,0,1-8.95.356c-1.792-.475-5.575-1.226-5.536-3.77Z"/></g><g class="cls-5"><path class="cls-4" d="M297.12244,183.00682c1.753-2.478,2.861-4.679,5.536-6.3,1.16-.712,4.073-2.886,5.563-2.886a3.09636,3.09636,0,0,1,2.451,2.398c.159,1.252-1.067,2.926-1.74,3.954a14.49151,14.49151,0,0,1-6.076,5.166,4.98517,4.98517,0,0,1-3.585.396c-1.318-.369-1.793-1.595-2.86-1.99Z"/></g><g class="cls-5"><path class="cls-4" d="M157.95944,77.38851c-3.506,3.4793-6.366,7.15631-7.5,12.138a3.82041,3.82041,0,0,0,1.015,4.17781c1.859,1.6474,4.231.75119,6.406,0,6.089-2.0691,11.863-5.7066,17.135-9.22541,4.851-3.1894,11.349-4.08559,15.066-8.72459,2.016-2.50411,4.125-5.27171,2.188-8.5929-1.687-2.8335-5.971-4.046-8.99-4.09871a26.22222,26.22222,0,0,0-12.535,3.3739A43.2849,43.2849,0,0,0,157.95944,77.38851Z"/></g><g class="cls-5"><path class="cls-4" d="M137.97745,62.40372c6.749-1.3179,12.574-2.7018,18.453-6.2997,1.186-.71171,2.373-1.0543,3.506-1.7001,1.134-.6457,1.318-1.397,2.162-2.1877-.58-2.74131-7.975-1.09391-9.675-.369-2.267.94891-4.56,2.28-6.762,3.387a23.91323,23.91323,0,0,0-3.427,1.87151c-2.201,1.63419-3.519,4.46769-4.995,6.72129Z"/></g></g><g class="cls-6"><g class="cls-6"><path class="cls-4" d="M347.80246,212.79181a60.90014,60.90014,0,0,1-6.01,3.321c-3.388,1.384-6.472,3.334-9.833,4.784-3.954,1.713-8.225,2.846-12.298,4.243a83.5649,83.5649,0,0,0-16.515,7.42c-5.273,3.216-10.308,7.908-13.01,13.496-1.542,3.229-2.175,7.591-.29,10.846a11.784,11.784,0,0,0,4.851,4.85c3.466,1.555,6.84.567,10.32-.25a53.734,53.734,0,0,0,12.693-4.494c2.149-1.12,4.192-2.425,6.34-3.559,2.149-1.133,4.745-2.056,7.105-3.018,1.832-.751,3.704-1.41,5.589-2.003a21.48432,21.48432,0,0,0,6.405-3.426,33.2349,33.2349,0,0,0,9.398-10.373c2.94-5.271,4.469-10.648,3.454-16.553C355.21045,213.50282,351.84946,211.26282,347.80246,212.79181Z"/></g><g class="cls-6"><path class="cls-4" d="M283.08545,245.56781c-1.318-1.753-2.162-1.581-4.271-1.463a36.20354,36.20354,0,0,0-4.837.857c-7.909,1.661-15.975,2.504-23.831,4.52a53.50363,53.50363,0,0,0-12.548,4.455c-3.954,2.135-8.08,4.046-11.968,6.379a93.32128,93.32128,0,0,1-28.774,11.782c-6.367,1.318-12.733,2.636-19.126,3.822-3.848.711-7.75,1.318-11.586,2.109-3.835.79-7.631,1.91-11.48,2.767a146.0144,146.0144,0,0,0-20.285,5.694c-6.736,2.543-13.603,4.902-18.875,10.003-2.702,2.635-6.169,6.444-6.156,10.451a15.531,15.531,0,0,0,2.636,7.907c5.273,8.725,15.409,13.904,24.214,18.372,12.205,6.194,26.717,6.998,40.069,8.54a166.20733,166.20733,0,0,0,52.21-2.636c7.71-1.568,15.474-3.097,23.211-4.547,9.332-1.752,18.77-2.991,28.075-4.942,7.658-1.621,15.369-3.413,22.895-5.601a94.54954,94.54954,0,0,0,12.14-4.257,99.425,99.425,0,0,0,9.978-5.522,70.28647,70.28647,0,0,0,7.908-5.074,35.40285,35.40285,0,0,0,5.563-6.102c2.741-3.532,4.507-7.433,6.695-11.268a84.27306,84.27306,0,0,1,4.745-7.855c1.78-2.438,3.876-4.731,5.813-7.051,4.06-4.889,9.042-9.107,12.838-14.181,2.215-2.952,4.376-6.668,4.68-10.398.21-2.543.224-5.153-2.439-6.313a15.82506,15.82506,0,0,0-8.185-.87,49.64289,49.64289,0,0,0-8.093,2.307,75.67008,75.67008,0,0,0-13.537,5.351c-10.861,5.825-21.551,13.06-33.782,15.656-5.049,1.081-10.097,1.635-14.947-.369a49.96663,49.96663,0,0,1-10.321-5.403c-4.218-3.044-2.939-6.656-1.094-10.82C281.41144,250.02281,283.70444,246.02881,283.08545,245.56781Z"/></g><g class="cls-6"><path class="cls-4" d="M517.65045,188.94981a91.29779,91.29779,0,0,1-1.067,13.272c-.277,1.964-.607,3.954-.91,5.878-.408,2.636-1.66,4.955-2.28,7.551-1.107,4.653-3.321,8.685-5.272,12.995s-3.269,9.028-5.273,13.456c-5.456,12.547-8.712,25.844-14.037,38.431-2.636,6.233-5.035,12.678-7.909,18.78-2.636,5.496-5.76,10.754-8.488,16.184-1.028,2.03-3.836,5.772-1.7,7.907,1.7,1.687,4.797.132,6.59-.83,7.17-3.835,10.215-12.915,14.631-19.281,2.24-3.216,5.681-5.641,8.014-8.83,3.044-4.165,6.656-9.133,8.659-13.838,4.166-9.74,6.723-19.835,10.334-29.772,2.992-8.211,3.44-16.171,3.44-24.79,0-3.611.409-7.235-.685-10.688C520.69543,212.11882,519.90442,206.72882,517.65045,188.94981Z"/></g><g class="cls-6"><path class="cls-4" d="M504.33844,201.31282c-3.031,2.912-9.226,10.068-6.274,14.826,1.621,2.636,6.34,1.476,8.001-.764,1.423-1.924,1.12-5.14,1.12-7.394,0-1.239.409-3.097,0-4.217-.408-1.12-1.582-1.318-1.832-2.451Z"/></g><g class="cls-6"><path class="cls-4" d="M446.29044,339.31183a102.61836,102.61836,0,0,0-11.138,7.63,69.45087,69.45087,0,0,1-10.716,5.918,111.06655,111.06655,0,0,1-29.749,9.304c-13.181,2.307-26.731,4.06-39.543,8.29-9.727,3.203-19.362,6.59-28.998,10.029-9.094,3.216-19.428,5.523-27.521,10.966-1.99,1.317-4.666,3.413-3.954,6.102,1.133,4.296,9.951,4.467,13.088,4.599,9.464.395,19.06,0,28.537,0,4.547,0,9.108-.25,13.642.198a85.98922,85.98922,0,0,0,16.977,0c7.104-.633,14.499-.488,21.379-2.636,13.181-4.231,26.269-9.226,39.174-14.273,11.572-4.573,28.365-14.023,27.35-28.48C454.38345,350.69882,450.50845,341.94781,446.29044,339.31183Z"/></g><g class="cls-6"><path class="cls-4" d="M465.32346,350.69882c-1.925-3.954-2.439-4.995-.356-8.646,1.318-2.319,5.272-5.733,8.225-5.746,5.891,0,6.076,6.748,4.758,10.846-1.16,3.585-2.636,9.041-6.92,9.226a4.52,4.52,0,0,1-3.757-1.16c-1.397-1.028-3.321-4.31-4.811-4.56Z"/></g><g class="cls-6"><path class="cls-4" d="M50.483,362.11182c-1.0676,4.481-1.7135,8.566.4745,12.876,3.0184,5.996,9.6879,10.016,15.817,11.953a46.10108,46.10108,0,0,0,11.8627,1.832c4.4947.211,8.9762.91,13.4709.989a150.94614,150.94614,0,0,1,20.1004,1.594c3.704.541,7.289,1.621,10.98,2.069a78.26841,78.26841,0,0,1,8.541,1.397c6.011,1.397,11.995,1.437,18.058,2.28a69.23353,69.23353,0,0,0,19.323-.448c5.549-.83,11.428-1.568,14.064-6.932,2.069-4.217.553-6.484-3.137-9.357-3.282-2.557-8.792-3.664-12.641-4.929-5.891-1.951-11.744-3.756-17.794-5.272-8.435-2.043-16.555-5.047-24.898-7.512-17.135-5.048-33.5718-12.085-51.4978-13.706-7.4208-.686-16.1992-.765-23.0532,2.636a10.07917,10.07917,0,0,0-4.7188,5.535C43.95845,360.68781,45.73785,362.83682,50.483,362.11182Z"/></g><g class="cls-6"><path class="cls-4" d="M49.481,330.71881c.9886,3.137.7908,4.112,3.6906,4.995a10.14754,10.14754,0,0,0,5.8919.566c2.4516-.711,5.3778-2.517,5.6941-5.087.3559-2.86-2.1749-4.981-4.5079-6.233-4.6792-2.504-8.4489-2.307-10.7687,2.899Z"/></g><g class="cls-6"><path class="cls-4" d="M250.26445,120.44482a9.41972,9.41972,0,0,1,1.015-4.929,46.41414,46.41414,0,0,1,3.269-6.141c.91-1.318,1.489-2.781,2.346-4.152,1.213-1.937,2.452-3.703,3.493-5.746a40.6867,40.6867,0,0,1,5.273-7.0904,25.96989,25.96989,0,0,0,3.321-4.77089c.751-1.42331,1.885-2.53041,2.636-3.95371,1.002-1.73969,1.674-3.78249,2.636-5.60119a52.54074,52.54074,0,0,1,3.19-5.7066,14.91617,14.91617,0,0,1,2.9-3.756,19.73049,19.73049,0,0,1,2.834-2.37229c2.293-1.00161,3.466-.2109,4.653,1.911a24.25138,24.25138,0,0,1,2.451,12.0458,45.36879,45.36879,0,0,1-2.359,12.6652,49.38631,49.38631,0,0,1-4.139,8.15809c-2.807,4.942-6.168,9.515-9.45,14.154-1.938,2.742-5.207,5.008-7.909,7.077a17.46013,17.46013,0,0,1-5.536,2.926c-1.133.369-2.715,1.147-3.954.896a24.40278,24.40278,0,0,1-3.361-1.318C250.83145,123.72681,249.51344,121.36781,250.26445,120.44482Z"/></g><g class="cls-6"><path class="cls-4" d="M239.79945,124.25381c-1.648.83-3.375,1.41-4.073,3.216-.198.487-.514,1.528-.172,2.042,1.318,1.911,5.853-.645,6.881-1.673s2.162-2.913,1.173-4.271a2.635,2.635,0,0,0-3.809-.263Z"/></g><g class="cls-6"><path class="cls-4" d="M324.01144,56.22261a10.22956,10.22956,0,0,0-2.992,1.99011,10.16266,10.16266,0,0,0-.923,2.3986,39.24405,39.24405,0,0,0-2.214,9.344c-.316,3.13671-.409,8.68511,3.256,9.9767,7.117,2.504,17.517-2.63579,18.097-10.6092.329-4.53369-2.135-8.751-4.785-12.204a26.52772,26.52772,0,0,0-4.534-4.95541,5.76081,5.76081,0,0,0-4.257-1.19929C323.19446,51.46492,321.32245,53.91632,324.01144,56.22261Z"/></g><g class="cls-6"><path class="cls-4" d="M322.57446,95.23312c0-1.5552,0-1.9374,1.028-2.95221a7.50653,7.50653,0,0,1,2.32-1.7396c1.687-.55349,2.781.6985,2.86,2.29321.066,1.21249.119,3.677-.975,4.52039s-5.523.0791-5.272-1.6474Z"/></g><g class="cls-6"><path class="cls-4" d="M374.44144,62.87812c-.725,2.96529-.619,6.0229-1.186,9.05409a105.002,105.002,0,0,0-1.635,15.03751c-.092,2.63579,0,5.1794-.131,7.77569a62.66071,62.66071,0,0,0-.317,9.5684c.422,4.125.883,8.461,3.625,11.755,1.951,2.346,4.679,1.49,7.249.541a29.88445,29.88445,0,0,0,5.747-3.664,30.60872,30.60872,0,0,0,4.06-3.176c5.681-5.272,10.795-11.0838,13.075-18.7146,1.648-5.5484,3.269-11.86119,1.912-17.581a22.08139,22.08139,0,0,0-4.785-9.92389,22.26776,22.26776,0,0,0-6.696-4.995c-2.096-1.1202-4.363-1.2125-6.59-1.7396a25.11324,25.11324,0,0,0-5.694-.6063,27.8875,27.8875,0,0,0-5.273.52719C374.07245,57.43512,373.14944,62.39051,374.44144,62.87812Z"/></g><g class="cls-6"><path class="cls-4" d="M380.14844,124.72781c.659-2.069,2.149-4.204,4.587-3.071a3.65055,3.65055,0,0,1,1.858,4.745,3.18892,3.18892,0,0,1-3.69,1.581,5.45829,5.45829,0,0,1-2.307-1.818c-.857-1.147-.158-2.043,0-3.348Z"/></g><g class="cls-6"><path class="cls-4" d="M386.81845,175.62581a24.70884,24.70884,0,0,0-5.536,1.173,4.20652,4.20652,0,0,1-.699,1.16c-.382.501-1.516,1.16-1.318,1.885,2.399,1.014,5.826-.607,7.909-1.727a14.118,14.118,0,0,0,3.044-2.003,12.44457,12.44457,0,0,0,1.622-1.727c.764-1.383,0-2.108-1.411-2.095-1.41.013-4.863,1.107-4.995,2.86Z"/></g><g class="cls-6"><path class="cls-4" d="M465.79745,167.54681a9.42086,9.42086,0,0,1-1.067,4.653c-.672,1.7-1.621,3.716-1.318,5.614.659,4.494,6.867,3.598,10.03,3.189,3.717-.487,7.25-1.318,10.031-3.953a10.27055,10.27055,0,0,0,3.651-6.761c.659-4.771,1.766-12.837-5.272-12.745a15.306,15.306,0,0,0-8.093,2.979,18.73628,18.73628,0,0,0-4.231,4.125C467.89346,166.55882,466.08746,168.15381,465.79745,167.54681Z"/></g><g class="cls-6"><path class="cls-4" d="M416.31644,426.29382c2.057-6.668,5.273-12.335,11.376-16.118,1.423-.883,2.636-2.029,4.336-1.146,1.397.738,1.134,2.359.699,3.743a20.17609,20.17609,0,0,1-3.546,5.864,57.7189,57.7189,0,0,1-4.547,4.587,7.82535,7.82535,0,0,1-3.322,2.148A17.25492,17.25492,0,0,0,416.31644,426.29382Z"/></g><g class="cls-6"><path class="cls-4" d="M174.13245,433.95081c.119-2.556,1.595-3.756,3.611-5.443a44.64085,44.64085,0,0,1,15.092-7.643c4.667-1.463,10.229-2.491,15.066-1.16,2.162.606,4.864,1.647,5.787,3.861,1.581,3.822-2.531,9.45-5.576,11.558-3.836,2.636-9.385,3.453-13.774,4.784a31.0266,31.0266,0,0,1-12.64,1.068,18.3368,18.3368,0,0,1-4.495-.83,40.91365,40.91365,0,0,1-4.086-1.239c-1.186-.633-2.728-1.621-2.834-3.031a4.58339,4.58339,0,0,1,.58-2.425C171.61446,432.23782,173.19644,432.0798,174.13245,433.95081Z"/></g></g><path class="cls-7" d="M458.90344,150.36182c-1.555,1.041-4.508,2.517-3.954,4.863a30.22091,30.22091,0,0,0,1.213,3.071,13.22072,13.22072,0,0,1,.567,2.846,8.60768,8.60768,0,0,0,1.753,4.363c.711.777,1.463,0,1.95-.751a5.27821,5.27821,0,0,0,1.108-2.636,18.17812,18.17812,0,0,1,.434-3.69c.132-.475.488-.897.594-1.318a8.12031,8.12031,0,0,0,.079-2.03,5.10144,5.10144,0,0,0-3.744-4.718Z"/><path class="cls-7" d="M434.04446,284.16983c-.276.145-.606.25-.751.54a1.6366,1.6366,0,0,0-.119.501c-.065.751.976,1.081,1.49,1.226a5.6619,5.6619,0,0,0,4.534-.475,4.25425,4.25425,0,0,0,1.964-2.807,3.84933,3.84933,0,0,0-2.162-3.466,3.78479,3.78479,0,0,0-3.809-.382,2.42779,2.42779,0,0,0-1.002,1.147c-.145.395-.118.817-.237,1.212s-.514.923-.435,1.502A1.68434,1.68434,0,0,0,434.04446,284.16983Z"/><path class="cls-7" d="M442.52045,286.71381a.88182.88182,0,0,1,.408-.791.67165.67165,0,0,1,.883-.119,1.15387,1.15387,0,0,1,.302.332,1.15293,1.15293,0,0,1,.129.871,1.1565,1.1565,0,0,1-.193.405,1.21242,1.21242,0,0,1-1.094.343.951.951,0,0,1-.686-.975Z"/><path class="cls-7" d="M463.35944,255.06981a1.96389,1.96389,0,0,0-1.318.673.88913.88913,0,0,0-.276.357.89916.89916,0,0,0-.067.447,3.95452,3.95452,0,0,0,1.397,2.464,2.00772,2.00772,0,0,0,1.74.343,5.39928,5.39928,0,0,0,1.463-.962,11.76465,11.76465,0,0,0,1.173-.962,2.31852,2.31852,0,0,0,1.028-2.28,2.49378,2.49378,0,0,0-1.726-1.846,3.22793,3.22793,0,0,0-1.727.159C464.36145,253.64682,463.87344,253.64682,463.35944,255.06981Z"/><path class="cls-7" d="M459.47046,257.85083a2.94443,2.94443,0,0,1,1.107.725c-.079.211.132.395,0,.62-.132.224-.725.079-.962,0a1.31543,1.31543,0,0,1-.738-.673c0-.118-.29-.632,0-.579Z"/><path class="cls-7" d="M413.17944,274.98383c-.422.475-.896.989-.593,1.727a1.51594,1.51594,0,0,0,1.687.659.86554.86554,0,0,0,.844-.488c.145-.356.197-.791.316-1.16.277-.896,1.318-1.318.791-2.385a1.76023,1.76023,0,0,0-.498-.609,1.741,1.741,0,0,0-.715-.327c-.857,0-1.529.791-2.03,1.489Z"/><path class="cls-7" d="M287.60645,364.44382c.263-.566.579-1.607,1.555-1.963a2.75437,2.75437,0,0,1,1.819,0c1.463.237,2.913.698,1.951,2.148a4.64549,4.64549,0,0,1-2.637,1.516c-.87.145-2.478-.132-2.399-.87Z"/><path class="cls-7" d="M376.04944,57.14521c-.33,1.31791-.778,2.96531.724,3.9538,1.029.63261,2.637,0,3.493-.69849a9.32656,9.32656,0,0,0,2.874-5.074c.224-1.72651-1.859-3.5716-3.44-3.7692-3.23-.39541-4.956,4.7313-5.141,7.1431Z"/><path class="cls-7" d="M368.85245,347.89081a7.092,7.092,0,0,0-1.055,5.101c.132,1.067.145,2.504,1.542,2.86,3.296.83,6.71-5.272,7.593-7.288a10.56165,10.56165,0,0,0,1.041-5.088c-.092-.962-.804-2.846-1.951-3.242a4.7444,4.7444,0,0,0-4.402,1.516c-2.478,2.478-2.294,5.338-3.638,8.013Z"/><path class="cls-7" d="M367.12546,347.66681a11.90161,11.90161,0,0,0-2.517.659c-.409.238-1.055.607-1.2.989a1.415,1.415,0,0,0,.554,1.318,1.32417,1.32417,0,0,0,.571.235,1.30958,1.30958,0,0,0,.615-.051,3.16885,3.16885,0,0,0,.844-.725,8.07859,8.07859,0,0,0,1.002-1.318,3.16087,3.16087,0,0,0,.421-.672c.119-.369-.158-.461-.237-.738Z"/><path class="cls-7" d="M363.35645,362.29581l1.107.33c-.119.369,0,.777-.475,1.054a2.867,2.867,0,0,1-1.476.198c-.488-.106-.765-.382-.699-.804s.673-.738,1.239-.883Z"/><path class="cls-7" d="M307.57446,374.6058c0,.395,0,.672.448.843a2.31045,2.31045,0,0,0,2.215-.474c.804-.752,1.516-2.135,1.015-2.887a1.76805,1.76805,0,0,0-2.215-.25,7.34635,7.34635,0,0,0-1.107.962,2.14813,2.14813,0,0,0-.382,1.713Z"/><path class="cls-7" d="M248.91945,279.5708c-.395.355-.593.474-.685.975a2.11379,2.11379,0,0,0,.171,1.621,5.75942,5.75942,0,0,0,3.362,1.95,3.06879,3.06879,0,0,0,2.715-.514,3.95578,3.95578,0,0,0,1.753-2.754,2.63714,2.63714,0,0,0-1.147-2.9,8.08719,8.08719,0,0,0-3.058-1.449,2.71208,2.71208,0,0,0-2.386.738C248.98544,277.7908,248.11545,278.79282,248.91945,279.5708Z"/><path class="cls-7" d="M257.56644,283.43182c0-.316,0-.698.317-.791a2.17668,2.17668,0,0,1,1.568.633,1.85311,1.85311,0,0,1,.448,1.212,1.31968,1.31968,0,0,1-.553.712,1.09189,1.09189,0,0,1-1.318.092c-.277-.171-.949-.527-.844-.935Z"/><path class="cls-7" d="M92.10775,249.69281a17.77655,17.77655,0,0,1-3.427-11.65c.0922-1.779-.1054-4.995,2.4253-4.745,3.4006.33,5.1405,5.602,6.0895,8.237,1.4104,3.954,2.7809,7.908,2.2803,12.138-.6854,5.786-8.3039-5.733-9.0553-6.8Z"/><path class="cls-7" d="M99.43635,230.56981c-.6063,3.361.8961,8.132,4.5341,9.226,1.318.382,1.779-.422,2.465-1.648a4.7328,4.7328,0,0,0,.633-3.953,12.10425,12.10425,0,0,0-1.569-2.504,8.4662,8.4662,0,0,1-.936-1.411c-.25-.54-.158-.962-.58-1.436-1.015-1.147-4.9426-2.082-4.5471.593Z"/><path class="cls-7" d="M136.50145,468.9158a10.77858,10.77858,0,0,1,4.151-5.206,22.41284,22.41284,0,0,1,7.118-3.163,12.10683,12.10683,0,0,1,7.21.554c2.228,1.186,4.205,2.952,6.314,4.322,1.911,1.252,3.835,1.951,5.509,3.612a15.17938,15.17938,0,0,1,3.388,5.39c1.16,3.057,2.003,7.749.698,10.859-1.186,2.834-2.86,2.874-5.694,2.821-3.954-.066-7.816-3.308-10.32-6.208a29.24439,29.24439,0,0,0-3.783-4.204c-1.806-1.423-3.691-2.741-5.589-4.033a55.13832,55.13832,0,0,1-5.391-3.4C139.38745,469.62781,137.04144,467.83481,136.50145,468.9158Z"/><path class="cls-7" d="M205.01445,289.2308c-.25,1.45-.619,2.082.448,2.794a1.93973,1.93973,0,0,0,2.254,0c.804-.475,2.637-2.188,2.36-3.203-.475-2.122-5.8-2.201-5.523.369Z"/><path class="cls-7" d="M304.78046,357.30081c-.857-3.953,3.176-9.713,7.737-12.942,6.498-4.612,16.371-5.614,23.646-4.639,6.103.804,11.112,4.033,12.338,8.409.329,1.173.105,2.398.382,3.571.224.896.461,1.41-.857,2.162-3.282,1.858-8.475,3.004-12.166,3.611a69.396,69.396,0,0,1-12.482,1.318c-3.533-.079-6.907-.593-10.439-.725a28.08733,28.08733,0,0,1-5.022-.435C307.08646,357.47281,305.01746,357.76282,304.78046,357.30081Z"/><path class="cls-7" d="M338.24646,332.9328c.606.751.633,1.186,1.832,1.318a4.97313,4.97313,0,0,0,2.636-.778c.963-.553,2.294-1.871,1.819-2.635-.843-1.437-6.59-.58-5.997,1.318Z"/><path class="cls-7" d="M428.53546,256.4938a8.11278,8.11278,0,0,1,1.173-3.058,2.51661,2.51661,0,0,1,1.911-.356,3.87953,3.87953,0,0,1,3.005,1.74,5.43578,5.43578,0,0,1,1.318,1.937c.91,4.152-6.406,2.359-7.368-.263Z"/><path class="cls-8" d="M454.87643,527.96582c58.817-37.654,91.749-91.211,73.556-119.623-18.194-28.412-80.623-20.92-139.441,16.734-58.817,37.654-91.749,91.211-73.556,119.623C333.62946,573.11182,396.05844,565.61981,454.87643,527.96582Z"/></g></g></svg>